<svg xmlns="http://www.w3.org/2000/svg" width="335.36501" height="77.24597" viewBox="0 0 335.36501 77.24597">
  <defs>
    <style>
      .cls-1 {
        fill: #fff;
        stroke: #fff;
        stroke-miterlimit: 10;
      }
    </style>
  </defs>
  <title>Asset 2</title>
  <g id="Layer_2" data-name="Layer 2">
    <g id="Capa_1" data-name="Capa 1">
      <g>
        <path class="cls-1" d="M133.33233,23.116,56.01,23.114V3A2.49991,2.49991,0,0,0,52.069.957L1.56,36.578a2.49947,2.49947,0,0,0-.001,4.086l50.51,35.625a2.49991,2.49991,0,0,0,3.941-2.043V54.128l77.32333.002a2.50092,2.50092,0,0,0,2.5-2.5V25.616A2.50177,2.50177,0,0,0,133.33233,23.116Z"/>
        <path class="cls-1" d="M202.03267,54.13l77.32234.002V74.246a2.49991,2.49991,0,0,0,3.941,2.043l50.509-35.621a2.49947,2.49947,0,0,0,.001-4.086L283.296.957A2.49991,2.49991,0,0,0,279.355,3V23.118l-77.32333-.002a2.50092,2.50092,0,0,0-2.5,2.5V51.63A2.50177,2.50177,0,0,0,202.03267,54.13Z"/>
      </g>
    </g>
  </g>
</svg>
