<?xml version="1.0" encoding="UTF-8"?>
<svg width="106px" height="118px" viewBox="0 0 106 118" version="1.1" xmlns="http://www.w3.org/2000/svg" xmlns:xlink="http://www.w3.org/1999/xlink">
    <title>spyglass_logo</title>
    <defs>
        <polygon id="path-1" points="0.642206977 0.519153571 89.9503233 0.519153571 89.9503233 61 0.642206977 61"></polygon>
        <polygon id="path-3" points="0.810829545 0.992444444 93.375375 0.992444444 93.375375 56.3628963 0.810829545 56.3628963"></polygon>
        <polygon id="path-5" points="0 0.531424242 16.489575 0.531424242 16.489575 70.3007576 0 70.3007576"></polygon>
    </defs>
    <g id="spyglass_logo" stroke="none" stroke-width="1" fill="none" fill-rule="evenodd">
        <g id="Logo">
            <g id="Group-3" transform="translate(16.000000, 56.000000)">
                <mask id="mask-2" fill="white">
                    <use xlink:href="#path-1"></use>
                </mask>
                <g id="Clip-2"></g>
                <path d="M88.8148581,0.519153571 C87.5171837,10.795475 83.1137419,20.0936179 76.5842767,27.4288679 C68.1450674,42.7398679 51.9306256,53.1033321 33.315486,53.1033321 C20.7929279,53.1033321 9.3560907,48.4128679 0.642206977,40.685475 C9.64590465,53.0052964 24.1452535,61.0006536 40.4959512,61.0006536 C67.8098349,61.0006536 89.9503233,38.6964393 89.9503233,11.1854393 C89.9503233,7.52543929 89.5588581,3.95476071 88.8148581,0.519153571" id="Fill-1" fill="#F527F4" mask="url(#mask-2)"></path>
            </g>
            <g id="Group-6" transform="translate(12.000000, 0.000000)">
                <mask id="mask-4" fill="white">
                    <use xlink:href="#path-3"></use>
                </mask>
                <g id="Clip-5"></g>
                <path d="M44.0077614,0.99222963 C25.4223068,0.99222963 9.23560227,11.2109704 0.810829545,26.3081556 C9.85094318,16.2806 22.9717386,9.97578519 37.5758295,9.97578519 C53.8985568,9.97578519 68.3709432,17.8594889 77.3592386,30.0072667 C85.1082159,36.7954148 90.7002614,45.9658593 92.9802614,56.3628963 C93.2415114,54.3157111 93.375375,52.2298593 93.375375,50.109637 C93.375375,22.9828222 71.2727614,0.99222963 44.0077614,0.99222963" id="Fill-4" fill="#F7F536" mask="url(#mask-4)"></path>
            </g>
            <path d="M89,31 C95.1708598,39.1584826 98.8158695,49.2392673 98.8158695,60.1466634 C98.8158695,68.8024045 96.5200442,76.9350554 92.492397,84 C99.1719657,76.7542342 103.675145,67.5646399 105,57.4128183 C102.666575,46.9919175 96.9380702,37.8023232 89,31" id="Fill-7" fill="#ED2534"></path>
            <g id="Group-11" transform="translate(0.000000, 26.000000)">
                <mask id="mask-6" fill="white">
                    <use xlink:href="#path-5"></use>
                </mask>
                <g id="Clip-10"></g>
                <path d="M12.40745,0.531424242 C4.6937,9.24075758 -0.000425,20.7492121 -0.000425,33.3678485 C-0.000425,48.0820606 6.378825,61.2837576 16.489575,70.3007576 C10.560825,62.1443636 7.0567,52.0709697 7.0567,41.1692424 C7.0567,39.045697 7.190575,36.9565758 7.4477,34.9061818 C6.7167,31.5110909 6.332075,27.9869091 6.332075,24.3702121 C6.332075,15.7211212 8.5357,7.59269697 12.40745,0.531424242" id="Fill-9" fill="#2CF7F6" mask="url(#mask-6)"></path>
            </g>
            <path d="M7.3954388,61 C7.13539481,63.0650986 7,65.1713692 7,67.3079771 C7,78.2900546 10.5439053,88.4335244 16.5399611,96.6484132 C25.1966322,104.336734 36.5611995,109 49.0046269,109 C67.5042856,109 83.6162676,98.6940093 92,83.4625525 C83.0037673,93.5756851 69.9435413,99.9400027 55.4090162,99.9400027 C31.8804076,99.9400027 12.2116255,83.2675274 7.3954388,61" id="Fill-12" fill="#2A26EB"></path>
            <path d="M49.0814063,10 C34.4284857,10 21.26382,16.3501272 12.1956465,26.4463104 C8.24646343,33.5447837 6,41.7138677 6,50.410687 C6,54.0442748 6.39426841,57.5891858 7.13947904,61 C10.2373023,36.6592875 31.0555411,17.8403308 56.2735554,17.8403308 C68.8164901,17.8403308 80.2719372,22.4947837 89,30.1685751 C79.9816516,17.937659 65.4608759,10 49.0814063,10" id="Fill-14" fill="#2BED34"></path>
            <path d="M8,61.1459459 C12.8315533,83.3643243 32.5521349,100 56.1452862,100 C70.7196817,100 83.815734,93.6497297 92.8387998,83.5589189 C96.76309,76.4627027 99,68.2940541 99,59.6 C99,48.6443243 95.4463732,38.5189189 89.4338693,30.3243243 C80.7534516,22.652973 69.3577095,18 56.8801478,18 C31.7914131,18 11.0838326,36.812973 8,61.1459459 Z" id="Fill-16" fill="#292432"></path>
            <path d="M29.142152,46.4711316 L27.4540967,46.4711316 L27.4540967,49.5588915 L29.142152,49.5588915 C29.9753208,49.5588915 30.5459033,49.0669746 30.5459033,48.0161663 C30.5459033,46.9630485 29.9753208,46.4711316 29.142152,46.4711316 M29.1915104,50.0300231 L27.4540967,50.0300231 L27.4540967,53 L27,53 L27,46 L29.1915104,46 C30.2280355,46 31,46.7274827 31,48.0161663 C31,49.295612 30.2280355,50.0300231 29.1915104,50.0300231" id="Fill-18" fill="#FFFFFF"></path>
            <path d="M38.1848249,46.4711316 L36.4455253,46.4711316 L36.4455253,49.3048499 L38.1848249,49.3048499 C38.9474708,49.3048499 39.4863813,48.8614319 39.4863813,47.886836 C39.4863813,46.9145497 38.9474708,46.4711316 38.1848249,46.4711316 L38.1848249,46.4711316 Z M38.0680934,49.7759815 L36.4455253,49.7759815 L36.4455253,53 L36,53 L36,46 L38.2431907,46 C39.2042802,46 39.9319066,46.6581986 39.9319066,47.8775982 C39.9319066,48.9284065 39.4027237,49.5981524 38.57393,49.7667436 L40,53 L39.4766537,53 L38.0680934,49.7759815 Z" id="Fill-20" fill="#FFFFFF"></path>
            <path d="M48.1068335,46.9948086 C47.8123195,46.6473069 47.4177093,46.4633355 47,46.4633355 C46.5822907,46.4633355 46.1896054,46.6473069 45.8950914,46.9948086 C45.4754572,47.4876703 45.4427334,48.0282284 45.4427334,49.5 C45.4427334,50.9695003 45.4754572,51.5100584 45.8950914,52.0029202 C46.1896054,52.3504218 46.5822907,52.5343933 47,52.5343933 C47.4177093,52.5343933 47.8123195,52.3504218 48.1068335,52.0029202 C48.5245428,51.5100584 48.5553417,50.9695003 48.5553417,49.5 C48.5553417,48.0282284 48.5245428,47.4876703 48.1068335,46.9948086 M48.4590953,52.2936405 C48.0721848,52.747891 47.5582291,53 47,53 C46.4436959,53 45.9258903,52.747891 45.5409047,52.2936405 C45.0096246,51.6667748 45,51.0467229 45,49.5 C45,47.9419208 45.0096246,47.3332252 45.5409047,46.7040883 C45.9258903,46.2498378 46.4436959,46 47,46 C47.5582291,46 48.0721848,46.2498378 48.4590953,46.7040883 C48.9903754,47.3332252 49,47.9419208 49,49.5 C49,51.0467229 48.9903754,51.6667748 48.4590953,52.2936405" id="Fill-22" fill="#FFFFFF"></path>
            <path d="M54.2720307,53 C53.756705,53 53.335249,52.8053647 53,52.4046451 L53.3007663,52.0451423 C53.5210728,52.3084724 53.756705,52.5328754 54.2720307,52.5328754 C55.1111111,52.5328754 55.5613027,51.9077527 55.5613027,50.7880275 L55.5613027,46 L56,46 L56,50.8956493 C56,52.1619235 55.3237548,53 54.2720307,53" id="Fill-24" fill="#FFFFFF"></path>
            <polygon id="Fill-26" fill="#FFFFFF" points="60 46 64 46 64 46.4711316 60.4980968 46.4711316 60.4980968 49.2332564 63.4823274 49.2332564 63.4823274 49.7066975 60.4980968 49.7066975 60.4980968 52.5288684 64 52.5288684 64 53 60 53"></polygon>
            <path d="M71.0086999,53 C70.4499758,53 69.9299178,52.7501622 69.5432576,52.2936405 C69.0096665,51.6667748 69,51.0489942 69,49.5 C69,47.9419208 69.0096665,47.3354964 69.5432576,46.7063595 C69.9299178,46.2498378 70.4499758,46 71.0086999,46 C72.062349,46 72.8047366,46.7744971 73,48.0123297 L72.5476075,48.0123297 C72.3755437,47.0538611 71.79942,46.4633355 71.0086999,46.4633355 C70.5891735,46.4633355 70.1947801,46.6473069 69.898985,46.9948086 C69.4775254,47.4876703 69.4446593,48.0304997 69.4446593,49.5 C69.4446593,50.9695003 69.4775254,51.5123297 69.898985,52.0051914 C70.1947801,52.3526931 70.5891735,52.5366645 71.0086999,52.5366645 C71.79942,52.5366645 72.3929435,51.9461389 72.5650072,50.9876703 L73,50.9876703 C72.8047366,52.2255029 72.0449493,53 71.0086999,53" id="Fill-28" fill="#FFFFFF"></path>
            <polygon id="Fill-30" fill="#FFFFFF" points="79.2206964 53 78.7714566 53 78.7714566 46.4711316 77 46.4711316 77 46 81 46 81 46.4711316 79.2206964 46.4711316"></polygon>
            <path d="M23.4791859,68 C22.4269195,68 21.6683626,67.7592472 21,67.091499 L21.7076781,66.4055808 C22.2187789,66.9097988 22.7807586,67.0619727 23.5,67.0619727 C24.413506,67.0619727 24.9477336,66.6758598 24.9477336,66.0081116 C24.9477336,65.7083063 24.859852,65.4584685 24.6725254,65.2949384 C24.4921369,65.1268657 24.3163737,65.0609994 23.9047179,65.004218 L23.0767808,64.8861129 C22.5055504,64.8111616 22.0522664,64.6158339 21.7469935,64.3364698 C21.4047179,64.0162232 21.23358,63.582414 21.23358,63.0214147 C21.23358,61.8221934 22.1216466,61 23.5786309,61 C24.5037003,61 25.1535615,61.233939 25.7525439,61.7835821 L25.0749306,62.4422453 C24.6424607,62.0334199 24.1382979,61.908501 23.5485661,61.908501 C22.7229417,61.908501 22.2696577,62.3718365 22.2696577,62.9828034 C22.2696577,63.2326411 22.3482886,63.4552239 22.5356152,63.6187541 C22.7113784,63.7754705 22.9981499,63.8890331 23.3242368,63.9390006 L24.1197965,64.0571058 C24.7696577,64.1524984 25.1350601,64.3069435 25.4310823,64.5681376 C25.8149861,64.8974692 26,65.390331 26,65.9785853 C26,67.2459442 24.9477336,68 23.4791859,68" id="Fill-32" fill="#FFFFFF"></path>
            <path d="M32.6509434,61.9538106 L31.0849057,61.9538106 L31.0849057,64.2840647 L32.6509434,64.2840647 C33.4033019,64.2840647 33.9174528,63.8614319 33.9174528,63.1247113 C33.9174528,62.3856813 33.4033019,61.9538106 32.6509434,61.9538106 M32.7099057,65.2471132 L31.0849057,65.2471132 L31.0849057,68 L30,68 L30,61 L32.7099057,61 C34.1061321,61 35,61.9053118 35,63.1247113 C35,64.3418014 34.1061321,65.2471132 32.7099057,65.2471132" id="Fill-34" fill="#FFFFFF"></path>
            <polygon id="Fill-36" fill="#FFFFFF" points="41.0048394 65.1200924 41.0048394 68 39.9929608 68 39.9929608 65.1200924 38 61 39.1042675 61 40.5010999 64.0785219 41.8935328 61 43 61"></polygon>
            <path d="M51.3809748,67.2164179 C50.8575344,67.7683323 50.2066477,68 49.4806586,68 C48.7637728,68 48.1424718,67.7365347 47.6690996,67.2641142 C46.9909029,66.5895522 47,65.8241402 47,64.5 C47,63.1758598 46.9909029,62.4104478 47.6690996,61.7336145 C48.1424718,61.261194 48.7455662,61 49.4806586,61 C50.9440159,61 51.7974513,61.9584685 51.9908967,63.1349773 L50.9349126,63.1349773 C50.7619497,62.3809215 50.2567159,61.9380273 49.4806586,61.9380273 C49.0732854,61.9380273 48.7046013,62.1015574 48.4633635,62.3627515 C48.1242652,62.7284231 48.046887,63.1168073 48.046887,64.5 C48.046887,65.8809215 48.1242652,66.2783907 48.4633635,66.6463335 C48.7046013,66.9075276 49.0732854,67.0619727 49.4806586,67.0619727 C49.9358241,67.0619727 50.334094,66.8870863 50.6049175,66.578196 C50.8575344,66.2897469 50.955395,65.939974 50.955395,65.4948086 L50.955395,65.1086957 L49.4806586,65.1086957 L49.4806586,64.220636 L52,64.220636 L52,65.2744971 C52,66.1625568 51.8338646,66.7326411 51.3809748,67.2164179" id="Fill-38" fill="#FFFFFF"></path>
            <polygon id="Fill-40" fill="#FFFFFF" points="56 68 56 61 56.9578345 61 56.9578345 67.0461894 60 67.0461894 60 68"></polygon>
            <path d="M67.0242962,62.5837731 L65.929811,65.6912929 L68.0887003,65.6912929 L67.0242962,62.5837731 Z M68.8661782,68 L68.3848824,66.5939974 L65.6174315,66.5939974 L65.1338218,68 L64,68 L66.5730814,61 L67.4292325,61 L70,68 L68.8661782,68 Z" id="Fill-42" fill="#FFFFFF"></path>
            <path d="M75.4791859,68 C74.4269195,68 73.6683626,67.7592472 73,67.091499 L73.7076781,66.4055808 C74.2187789,66.9097988 74.7807586,67.0619727 75.5,67.0619727 C76.413506,67.0619727 76.9477336,66.6758598 76.9477336,66.0081116 C76.9477336,65.7083063 76.859852,65.4584685 76.6725254,65.2949384 C76.4921369,65.1268657 76.3163737,65.0609994 75.9047179,65.004218 L75.0767808,64.8861129 C74.5055504,64.8111616 74.0522664,64.6158339 73.7469935,64.3364698 C73.4047179,64.0162232 73.23358,63.582414 73.23358,63.0214147 C73.23358,61.8221934 74.1216466,61 75.5786309,61 C76.5037003,61 77.1535615,61.233939 77.7525439,61.7835821 L77.0749306,62.4422453 C76.6424607,62.0334199 76.1382979,61.908501 75.5485661,61.908501 C74.7229417,61.908501 74.2696577,62.3718365 74.2696577,62.9828034 C74.2696577,63.2326411 74.3482886,63.4552239 74.5356152,63.6187541 C74.7113784,63.7754705 74.9981499,63.8890331 75.3242368,63.9390006 L76.1197965,64.0571058 C76.7696577,64.1524984 77.1350601,64.3069435 77.4287697,64.5681376 C77.8149861,64.8974692 78,65.390331 78,65.9785853 C78,67.2459442 76.9477336,68 75.4791859,68" id="Fill-44" fill="#FFFFFF"></path>
            <path d="M83.4791859,68 C82.4269195,68 81.6683626,67.7592472 81,67.091499 L81.7076781,66.4055808 C82.2187789,66.9097988 82.7807586,67.0619727 83.5,67.0619727 C84.413506,67.0619727 84.9477336,66.6758598 84.9477336,66.0081116 C84.9477336,65.7083063 84.859852,65.4584685 84.6725254,65.2949384 C84.4921369,65.1268657 84.3163737,65.0609994 83.9047179,65.004218 L83.0767808,64.8861129 C82.5055504,64.8111616 82.0522664,64.6158339 81.7469935,64.3364698 C81.4047179,64.0162232 81.23358,63.582414 81.23358,63.0214147 C81.23358,61.8221934 82.1216466,61 83.5786309,61 C84.5037003,61 85.1535615,61.233939 85.7525439,61.7835821 L85.0749306,62.4422453 C84.6424607,62.0334199 84.1382979,61.908501 83.5485661,61.908501 C82.7229417,61.908501 82.2696577,62.3718365 82.2696577,62.9828034 C82.2696577,63.2326411 82.3482886,63.4552239 82.5356152,63.6187541 C82.7113784,63.7754705 82.9981499,63.8890331 83.3242368,63.9390006 L84.1197965,64.0571058 C84.7696577,64.1524984 85.1350601,64.3069435 85.4310823,64.5681376 C85.8149861,64.8974692 86,65.390331 86,65.9785853 C86,67.2459442 84.9477336,68 83.4791859,68" id="Fill-46" fill="#FFFFFF"></path>
        </g>
    </g>
</svg>