<?xml version="1.0" encoding="UTF-8"?>
<svg width="31px" height="31px" viewBox="0 0 31 31" version="1.1" xmlns="http://www.w3.org/2000/svg" xmlns:xlink="http://www.w3.org/1999/xlink">
    <title>circle_warning</title>
    <g id="circle_warning" stroke="none" stroke-width="1" fill="none" fill-rule="evenodd">
        <g id="Group" transform="translate(0.380837, 0.886326)">
            <path d="M7.37067535,26.7746892 C7.37926224,26.7819043 7.38740188,26.7887825 7.39563093,26.7964726 C12.8317458,31.4810443 21.2348731,30.5728651 26.1638379,24.7670175 C28.1878283,22.38351 29.3111609,19.5454065 29.5559911,16.7034535 C29.0113769,18.6442296 28.0408886,20.5164766 26.6369326,22.169292 C24.939017,24.169401 22.8293039,25.5881956 20.5708716,26.3975874 C16.4667716,28.8671835 11.41633,29.0631607 7.37067535,26.7746892" id="Fill-1" fill="#F527F4"></path>
            <path d="M3.31290153,5.58304318 C-1.62899664,11.3642545 -0.965963545,20.0445956 4.79352652,24.972848 C5.4528776,25.5374554 6.15155602,26.0282107 6.87781096,26.4459378 C2.77215269,22.9150732 1.26682839,17.4744662 2.54690464,12.5469963 C2.72262904,9.65222384 3.80827078,6.78571827 5.84000518,4.40953524 C6.84645899,3.23147402 8.00932113,2.26433908 9.26947953,1.51272413 C7.03203834,2.28805155 4.96472966,3.65094759 3.31290153,5.58304318" id="Fill-4" fill="#F7F536"></path>
            <path d="M2.94165752,12.7007564 C1.77578271,17.3717491 3.28524914,22.5651339 7.26286821,25.9741075 C11.3749187,28.3568029 16.3876707,28.3657669 20.3707588,26.1276408 C16.1575099,27.4546333 11.3205313,26.616035 7.65745555,23.4917705 C4.36205661,20.6817357 2.75168956,16.6520932 2.94165752,12.7007564" id="Fill-7" fill="#ED2534"></path>
            <path d="M9.92918407,1.68711792 C14.1392063,0.339996578 19.0311776,1.1709251 22.7915017,4.27992286 C23.5763193,4.72041705 24.3308024,5.24375788 25.0438304,5.84921511 C28.3950711,8.6986266 30.0639237,12.7497403 29.9191375,16.7005573 C31.041583,12.0302286 29.4507887,6.80493845 25.3849934,3.34822383 C20.8569406,-0.502725113 14.6241938,-0.997647606 9.92918407,1.68711792" id="Fill-9" fill="#2CF7F6"></path>
            <path d="M22.8657429,3.82226769 C22.9154976,3.8641553 22.9657113,3.9063888 23.015114,3.94874359 C28.5965917,8.73333002 29.1847868,17.2248086 24.3284727,22.9158645 C23.2908843,24.1313968 22.0896058,25.1210358 20.7867043,25.8788153 C23.053708,25.1165464 25.1570047,23.7416339 26.8322439,21.7782748 C28.2181134,20.1549926 29.1609511,18.3040683 29.6723269,16.3763172 C29.9452499,12.3058932 28.3878368,8.19001692 25.0919483,5.36506161 C24.3906718,4.76483105 23.6448645,4.25043468 22.8657429,3.82226769" id="Fill-11" fill="#2A26EB"></path>
            <path d="M6.05114863,4.91351308 C4.01455491,7.29757639 2.92061585,10.1687139 2.73487024,13.0648772 C3.25235153,11.0959628 4.21163165,9.20832567 5.62389832,7.55376503 C9.96379238,2.47287813 17.1447105,1.2816569 22.7182766,4.352611 C18.9191318,1.19330524 13.8809225,0.463490111 9.48484792,2.00369429 C8.22425386,2.7600064 7.06037197,3.73107172 6.05114863,4.91351308" id="Fill-13" fill="#2BED34"></path>
            <path d="M6.10014399,7.51615606 C4.6989793,9.16188345 3.73876417,11.0315896 3.21035454,12.9759612 C2.90100912,17.0741349 4.42381849,21.2006623 7.69886825,24.0142611 C11.3402675,27.1432387 16.2443295,27.8700911 20.5762965,26.3722032 C21.8872542,25.5983415 23.0985177,24.5920963 24.147901,23.3600158 C29.059436,17.5914965 28.5452389,9.05328842 23.000186,4.28803946 C22.9507461,4.24633311 22.9008497,4.2042828 22.8514098,4.16257644 C17.4379954,1.20559665 10.4029247,2.46241121 6.10014399,7.51615606" id="Fill-15" fill="#ED2534"></path>
        </g>
    </g>
</svg>