<?xml version="1.0" encoding="UTF-8"?>
<svg width="275px" height="48px" viewBox="0 0 275 48" version="1.1" xmlns="http://www.w3.org/2000/svg" xmlns:xlink="http://www.w3.org/1999/xlink">
    <title>contentstack_logo</title>
    <g id="contentstack_logo" stroke="none" stroke-width="1" fill="none" fill-rule="evenodd">
        <g id="contentstack-logo" transform="translate(0.000000, 1.071200)" fill="#FFFFFF" fill-rule="nonzero">
            <path d="M41.9010565,18.8895396 C41.9010565,19.384434 41.5711269,19.7143635 41.0762326,19.7143635 L25.4045776,19.7143635 C24.9096832,19.7143635 24.5797536,19.384434 24.5797536,18.8895396 L24.5797536,17.0749269 C24.5797536,16.5800325 24.9096832,16.250103 25.4045776,16.250103 L41.0762326,16.250103 C41.5711269,16.250103 41.9010565,16.5800325 41.9010565,17.0749269 L41.9010565,18.8895396 Z" id="XMLID_204_"></path>
            <path d="M48.8295777,24.0034481 C48.8295777,24.4983424 48.4996481,24.828272 48.0047537,24.828272 L28.7038733,24.828272 C28.208979,24.828272 27.8790494,24.4983424 27.8790494,24.0034481 L27.8790494,22.1888354 C27.8790494,21.693941 28.208979,21.3640114 28.7038733,21.3640114 L47.8397889,21.3640114 C48.3346833,21.3640114 48.6646129,21.693941 48.6646129,22.1888354 L48.8295777,24.0034481 L48.8295777,24.0034481 Z" id="XMLID_202_"></path>
            <path d="M54.1084509,29.2823213 C54.1084509,29.7772157 53.7785213,30.1071453 53.283627,30.1071453 L32.3330987,30.1071453 C31.8382043,30.1071453 31.5082748,29.7772157 31.5082748,29.2823213 L31.5082748,27.4677086 C31.5082748,26.9728143 31.8382043,26.6428847 32.3330987,26.6428847 L53.283627,26.6428847 C53.7785213,26.6428847 54.1084509,26.9728143 54.1084509,27.4677086 L54.1084509,29.2823213 L54.1084509,29.2823213 Z" id="XMLID_200_"></path>
            <path d="M54.1084509,34.5611946 C54.1084509,35.0560889 53.7785213,35.3860185 53.283627,35.3860185 L32.3330987,35.3860185 C31.8382043,35.3860185 31.5082748,35.0560889 31.5082748,34.5611946 L31.5082748,32.7465819 C31.5082748,32.2516875 31.8382043,31.9217579 32.3330987,31.9217579 L53.283627,31.9217579 C53.7785213,31.9217579 54.1084509,32.2516875 54.1084509,32.7465819 L54.1084509,34.5611946 L54.1084509,34.5611946 Z" id="XMLID_197_"></path>
            <path d="M48.8295777,39.675103 C48.8295777,40.1699974 48.4996481,40.499927 48.0047537,40.499927 L28.7038733,40.499927 C28.208979,40.499927 27.8790494,40.1699974 27.8790494,39.675103 L27.8790494,37.8604904 C27.8790494,37.365596 28.208979,37.0356664 28.7038733,37.0356664 L47.8397889,37.0356664 C48.3346833,37.0356664 48.6646129,37.365596 48.6646129,37.8604904 L48.8295777,39.675103 L48.8295777,39.675103 Z" id="XMLID_171_"></path>
            <path d="M41.9010565,44.9539763 C41.9010565,45.4488707 41.5711269,45.7788002 41.0762326,45.7788002 L25.4045776,45.7788002 C24.9096832,45.7788002 24.5797536,45.4488707 24.5797536,44.9539763 L24.5797536,43.1393636 C24.5797536,42.6444693 24.9096832,42.3145397 25.4045776,42.3145397 L41.0762326,42.3145397 C41.5711269,42.3145397 41.9010565,42.6444693 41.9010565,43.1393636 L41.9010565,44.9539763 Z" id="XMLID_168_"></path>
            <path d="M12.2073944,3.0529198 C12.2073944,3.54781417 12.537324,3.87774375 13.0322184,3.87774375 L28.7038733,3.87774375 C29.1987677,3.87774375 29.5286973,3.54781417 29.5286973,3.0529198 L29.5286973,1.23830712 C29.5286973,0.743412752 29.1987677,0.413483173 28.7038733,0.413483173 L13.0322184,0.413483173 C12.537324,0.413483173 12.2073944,0.743412752 12.2073944,1.23830712 L12.2073944,3.0529198 L12.2073944,3.0529198 Z" id="XMLID_163_"></path>
            <path d="M5.27887326,8.33179306 C5.27887326,8.82668743 5.60880284,9.15661701 6.10369721,9.15661701 L25.2396128,9.15661701 C25.7345071,9.15661701 26.0644367,8.82668743 26.0644367,8.33179306 L26.0644367,6.51718038 C26.0644367,6.02228601 25.7345071,5.69235643 25.2396128,5.69235643 L6.10369721,5.69235643 C5.60880284,5.69235643 5.27887326,6.02228601 5.27887326,6.51718038 L5.27887326,8.33179306 L5.27887326,8.33179306 Z" id="XMLID_161_"></path>
            <path d="M0,13.6106663 C0,14.1055607 0.329929579,14.4354903 0.824823947,14.4354903 L21.7753522,14.4354903 C22.2702466,14.4354903 22.6001761,14.1055607 22.6001761,13.6106663 L22.6001761,11.7960536 C22.6001761,11.3011593 22.2702466,10.9712297 21.7753522,10.9712297 L0.824823947,10.9712297 C0.329929579,10.9712297 0,11.3011593 0,11.7960536 L0,13.6106663 Z" id="XMLID_145_"></path>
            <path d="M0,18.8895396 C0,19.384434 0.329929579,19.7143635 0.824823947,19.7143635 L21.7753522,19.7143635 C22.2702466,19.7143635 22.6001761,19.384434 22.6001761,18.8895396 L22.6001761,17.0749269 C22.6001761,16.5800325 22.2702466,16.250103 21.7753522,16.250103 L0.824823947,16.250103 C0.329929579,16.250103 0,16.5800325 0,17.0749269 L0,18.8895396 Z" id="XMLID_141_"></path>
            <path d="M5.27887326,24.0034481 C5.27887326,24.4983424 5.60880284,24.828272 6.10369721,24.828272 L25.2396128,24.828272 C25.7345071,24.828272 26.0644367,24.4983424 26.0644367,24.0034481 L26.0644367,22.1888354 C26.0644367,21.693941 25.7345071,21.3640114 25.2396128,21.3640114 L6.10369721,21.3640114 C5.60880284,21.3640114 5.27887326,21.693941 5.27887326,22.1888354 L5.27887326,24.0034481 L5.27887326,24.0034481 Z" id="XMLID_129_"></path>
            <path d="M12.2073944,29.2823213 C12.2073944,29.7772157 12.537324,30.1071453 13.0322184,30.1071453 L28.7038733,30.1071453 C29.1987677,30.1071453 29.5286973,29.7772157 29.5286973,29.2823213 L29.5286973,27.4677086 C29.5286973,26.9728143 29.1987677,26.6428847 28.7038733,26.6428847 L13.0322184,26.6428847 C12.537324,26.6428847 12.2073944,26.9728143 12.2073944,27.4677086 L12.2073944,29.2823213 L12.2073944,29.2823213 Z" id="XMLID_127_"></path>
            <path d="M74.5640848,33.406441 C73.7392608,33.5714058 72.9144369,33.5714058 72.089613,33.5714058 C69.9450707,33.5714058 68.2954228,33.2414763 67.1406693,32.5816171 C66.1508805,31.9217579 65.3260566,30.9319692 64.996127,29.4472861 C64.6661974,27.962603 64.5012326,25.8180607 64.5012326,23.0136593 C64.5012326,20.2092579 64.6661974,18.0647156 64.996127,16.5800325 C65.3260566,15.0953494 65.9859157,14.1055607 67.1406693,13.4457015 C68.130458,12.7858424 69.7801059,12.4559128 72.089613,12.4559128 C72.9144369,12.4559128 73.5742961,12.4559128 74.39912,12.6208776 C75.223944,12.7858424 75.8838031,12.9508072 76.3786975,12.9508072 L76.3786975,16.5800325 C74.7290496,16.4150677 73.5742961,16.250103 73.0794017,16.250103 C71.7596834,16.250103 70.7698946,16.4150677 70.2750003,16.5800325 C69.7801059,16.7449973 69.4501763,17.4048565 69.2852115,18.2296804 C69.1202467,19.0545044 69.1202467,20.5391875 69.1202467,22.8486945 C69.1202467,25.1582016 69.1202467,26.6428847 69.2852115,27.4677086 C69.4501763,28.2925326 69.7801059,28.7874269 70.2750003,29.1173565 C70.7698946,29.4472861 71.7596834,29.4472861 73.0794017,29.4472861 C74.2341552,29.4472861 75.3889087,29.2823213 76.5436623,29.1173565 L76.5436623,32.7465819 C76.2137327,33.0765115 75.5538735,33.2414763 74.5640848,33.406441 Z" id="XMLID_61_"></path>
            <path d="M86.936444,12.6208776 C89.4109158,12.6208776 91.2255285,12.9508072 92.2153173,13.4457015 C93.205106,14.1055607 93.8649651,14.9303846 94.1948947,16.4150677 C94.5248243,17.7347861 94.5248243,19.8793283 94.5248243,23.0136593 C94.5248243,26.1479903 94.3598595,28.2925326 94.1948947,29.6122509 C93.8649651,30.9319692 93.3700708,31.9217579 92.2153173,32.5816171 C91.0605637,33.2414763 89.4109158,33.406441 86.936444,33.406441 C84.4619722,33.5714058 82.6473595,33.2414763 81.6575707,32.5816171 C80.667782,31.9217579 80.0079228,31.096934 79.6779933,29.6122509 C79.3480637,28.2925326 79.3480637,25.9830255 79.3480637,23.0136593 C79.3480637,19.8793283 79.5130285,17.7347861 79.6779933,16.4150677 C79.8429581,15.0953494 80.5028172,14.1055607 81.6575707,13.4457015 C82.6473595,12.7858424 84.4619722,12.6208776 86.936444,12.6208776 Z M86.936444,16.4150677 C85.9466553,16.4150677 85.1218313,16.5800325 84.7919017,16.7449973 C84.4619722,16.9099621 84.1320426,17.5698213 84.1320426,18.2296804 C83.9931249,18.924269 83.9711905,20.2037743 83.9677272,21.969684 L83.9677272,24.0576346 C83.9711905,25.8235443 83.9931249,27.1030496 84.1320426,27.7976382 C84.2970074,28.6224622 84.4619722,29.1173565 84.7919017,29.2823213 C85.1218313,29.4472861 85.9466553,29.6122509 86.936444,29.6122509 C87.9262327,29.6122509 88.5860919,29.6122509 89.0809863,29.2823213 C89.4109158,29.1173565 89.7408454,28.4574974 89.7408454,27.7976382 C89.8797631,27.1030496 89.9016975,25.8235443 89.9051608,24.0576346 L89.9051608,21.969684 C89.9016975,20.2037743 89.8797631,18.924269 89.7408454,18.2296804 C89.5758806,17.4048565 89.4109158,16.9099621 89.0809863,16.7449973 C88.7510567,16.5800325 87.9262327,16.4150677 86.936444,16.4150677 Z" id="Combined-Shape"></path>
            <polygon id="XMLID_53_" points="108.381867 33.2414763 102.443134 21.5289762 102.278169 21.5289762 102.278169 33.2414763 97.8241201 33.2414763 97.8241201 12.7858424 102.443134 12.7858424 108.051937 23.5085537 108.216902 23.5085537 108.216902 12.7858424 112.670951 12.7858424 112.670951 33.2414763"></polygon>
            <polygon id="XMLID_52_" points="119.599472 33.2414763 119.599472 16.9099621 114.815493 16.9099621 114.815493 12.9508072 129.002465 12.9508072 129.002465 16.9099621 124.218486 16.9099621 124.218486 33.2414763"></polygon>
            <polygon id="XMLID_51_" points="131.311972 33.2414763 131.311972 12.7858424 143.519367 12.7858424 143.519367 16.5800325 135.766022 16.5800325 135.766022 20.8691171 142.364613 20.8691171 142.364613 24.6633072 135.766022 24.6633072 135.766022 29.2823213 143.519367 29.2823213 143.519367 33.0765115 131.311972 33.0765115"></polygon>
            <polygon id="XMLID_50_" points="157.376409 33.2414763 151.437677 21.5289762 151.272712 21.5289762 151.272712 33.2414763 146.818663 33.2414763 146.818663 12.7858424 151.437677 12.7858424 157.046479 23.5085537 157.211444 23.5085537 157.211444 12.7858424 161.665494 12.7858424 161.665494 33.2414763"></polygon>
            <polygon id="XMLID_49_" points="168.594015 33.2414763 168.594015 16.9099621 163.810036 16.9099621 163.810036 12.9508072 177.997008 12.9508072 177.997008 16.9099621 173.213029 16.9099621 173.213029 33.2414763"></polygon>
            <path d="M180.14155,33.0765115 L180.14155,29.4472861 C182.616022,29.6122509 184.26567,29.7772157 185.420423,29.7772157 C186.245247,29.7772157 186.905106,29.7772157 187.400001,29.6122509 C187.894895,29.4472861 188.224825,29.4472861 188.389789,29.2823213 C188.554754,29.1173565 188.719719,28.9523917 188.719719,28.6224622 C188.719719,28.2925326 188.719719,27.962603 188.719719,27.4677086 C188.719719,26.8078495 188.719719,26.3129551 188.554754,26.1479903 C188.389789,25.8180607 188.224825,25.6530959 188.05986,25.4881312 C187.72993,25.3231664 187.400001,25.1582016 186.740142,25.1582016 L183.440846,24.6633072 C181.956163,24.4983424 180.966374,23.8384833 180.306515,22.8486945 C179.646656,21.8589058 179.481691,20.5391875 179.481691,18.7245748 C179.481691,17.0749269 179.81162,15.7552086 180.306515,14.7654198 C180.801409,13.9405959 181.626233,13.2807367 182.616022,12.9508072 C183.605811,12.6208776 184.925529,12.4559128 186.410212,12.4559128 C188.224825,12.4559128 190.204402,12.6208776 192.18398,13.115772 L192.18398,16.7449973 C190.369367,16.5800325 188.884684,16.4150677 187.400001,16.4150677 C185.915318,16.4150677 184.925529,16.5800325 184.595599,16.7449973 C184.26567,16.9099621 184.26567,17.0749269 184.100705,17.4048565 C183.93574,17.7347861 183.93574,18.0647156 183.93574,18.55961 C183.93574,19.0545044 183.93574,19.5493987 184.100705,19.7143635 C184.26567,19.8793283 184.26567,20.0442931 184.430635,20.2092579 C184.595599,20.3742227 184.925529,20.3742227 185.585388,20.5391875 L189.049649,21.0340818 C189.874473,21.1990466 190.534332,21.3640114 191.029226,21.693941 C191.52412,22.0238706 192.019015,22.5187649 192.348944,23.1786241 C192.678874,24.0034481 193.008804,25.3231664 193.008804,26.9728143 C193.008804,28.9523917 192.678874,30.27211 192.18398,31.2618988 C191.689085,32.2516875 190.864261,32.9115467 190.039437,33.2414763 C189.214613,33.5714058 187.894895,33.7363706 186.410212,33.7363706 C184.100705,33.5714058 181.956163,33.2414763 180.14155,33.0765115 Z" id="XMLID_298_"></path>
            <polygon id="XMLID_296_" points="199.44243 33.2414763 199.44243 16.9099621 194.658451 16.9099621 194.658451 12.9508072 208.845423 12.9508072 208.845423 16.9099621 204.061444 16.9099621 204.061444 33.2414763"></polygon>
            <path d="M220.227994,12.7858424 L225.671832,33.2414763 L221.052818,33.2414763 L220.063029,29.1173565 L213.959332,29.1173565 L212.969543,33.2414763 L208.350529,33.2414763 L213.794367,12.7858424 L220.227994,12.7858424 Z M217.093663,17.0749269 L216.928698,17.0749269 L214.949121,25.3231664 L219.07324,25.3231664 L217.093663,17.0749269 Z" id="Combined-Shape"></path>
            <path d="M237.384332,33.406441 C236.559508,33.5714058 235.734684,33.5714058 234.90986,33.5714058 C232.765318,33.5714058 231.11567,33.2414763 229.960916,32.5816171 C228.806163,31.9217579 228.146304,30.9319692 227.816374,29.4472861 C227.486445,27.962603 227.32148,25.8180607 227.32148,23.0136593 C227.32148,20.2092579 227.486445,18.0647156 227.816374,16.5800325 C228.146304,15.0953494 228.806163,14.1055607 229.960916,13.4457015 C230.950705,12.7858424 232.600353,12.4559128 234.90986,12.4559128 C235.734684,12.4559128 236.394543,12.4559128 237.219367,12.6208776 C238.044191,12.7858424 238.70405,12.9508072 239.198945,12.9508072 L239.198945,16.5800325 C237.549297,16.4150677 236.394543,16.250103 235.899649,16.250103 C234.57993,16.250103 233.590142,16.4150677 233.095247,16.5800325 C232.600353,16.9099621 232.270423,17.4048565 232.105459,18.2296804 C231.940494,19.0545044 231.940494,20.5391875 231.940494,22.8486945 C231.940494,25.1582016 231.940494,26.6428847 232.105459,27.4677086 C232.270423,28.2925326 232.600353,28.7874269 233.095247,29.1173565 C233.590142,29.4472861 234.57993,29.4472861 235.899649,29.4472861 C237.054402,29.4472861 238.209156,29.2823213 239.363909,29.1173565 L239.363909,32.7465819 C238.869015,33.0765115 238.209156,33.2414763 237.384332,33.406441 Z" id="XMLID_291_"></path>
            <polygon id="XMLID_289_" points="252.726057 33.2414763 248.107043 24.828272 246.787325 24.828272 246.787325 33.2414763 242.168311 33.2414763 242.168311 12.7858424 246.787325 12.7858424 246.787325 20.8691171 248.107043 20.8691171 252.726057 12.7858424 257.675001 12.7858424 251.736269 22.5187649 257.675001 33.0765115"></polygon>
            <polygon id="XMLID_235_" points="262.788909 18.8895396 262.788909 13.9405959 260.974297 13.9405959 260.974297 12.9508072 265.758276 12.9508072 265.758276 13.9405959 263.943663 13.9405959 263.943663 18.8895396"></polygon>
            <polygon id="XMLID_205_" points="266.5831 18.8895396 266.5831 12.7858424 268.397712 12.7858424 269.552466 16.9099621 270.707219 12.7858424 272.521832 12.7858424 272.521832 18.8895396 271.367079 18.8895396 271.367079 14.1055607 270.212325 18.8895396 269.057571 18.8895396 267.902818 14.1055607 267.902818 18.8895396"></polygon>
        </g>
    </g>
</svg>