<svg xmlns="http://www.w3.org/2000/svg" width="16" height="16" viewBox="0 0 16 16">
  <path fill="rgb(34,23,47)" fill-rule="evenodd" d="M11.70700073 7.29296875c.39099884.39099121.39099884 1.02307129 0 1.4140625l-3 3c-.39100647.39099121-1.02300262.39099121-1.41400146 0l-3-3c-.39099884-.39099121-.39099884-1.02307129 0-1.4140625C4.48799897 7.09802246 4.74399567 7 5 7c.2559967 0 .51200104.09802246.70700073.29296875L7 8.58605957V1c0-.55200195.4469986-1 1-1s1 .44799805 1 1v7.58605957l1.29299927-1.29309082c.39099884-.39099121 1.022995-.39099121 1.41400146 0zM0 15c0-.55200195.4469986-1 1-1h14c.5530014 0 1 .44799805 1 1s-.4469986 1-1 1H1c-.5530014 0-1-.44799805-1-1z"/>
</svg>
