<svg xmlns="http://www.w3.org/2000/svg" width="360.18319" height="97.4058" viewBox="0 0 360.18319 97.4058">
  <defs>
    <style>
      .cls-1 {
        fill: #fff;
      }
    </style>
  </defs>
  <title>Asset 1</title>
  <g id="Layer_2" data-name="Layer 2">
    <g id="Layer_1-2" data-name="Layer 1">
      <g>
        <path class="cls-1" d="M69.3728,41.6905H39.1055a1.41509,1.41509,0,0,0-1.4143,1.415V57.9034a1.41656,1.41656,0,0,0,1.4143,1.4165H50.9129V77.7051s-2.6514.9039-9.9807.9039c-8.6478,0-20.7276-3.1597-20.7276-29.7235,0-26.569,12.5787-30.0649,24.3882-30.0649,10.2224,0,14.6265,1.7996,17.4287,2.6672a1.42427,1.42427,0,0,0,1.6948-1.3884l3.3765-14.298a1.31838,1.31838,0,0,0-.5405-1.1048C65.4141,3.8847,58.4714,0,40.9322,0,20.7261,0,0,8.5964,0,49.9215,0,91.2477,23.7298,97.4058,43.7264,97.4058c16.5571,0,26.6015-7.0752,26.6015-7.0752a1.215,1.215,0,0,0,.4585-1.0722V43.1055A1.41448,1.41448,0,0,0,69.3728,41.6905Z"/>
        <path class="cls-1" d="M225.356,4.9515a1.40962,1.40962,0,0,0-1.4048-1.4227h-17.042a1.41666,1.41666,0,0,0-1.4114,1.4227l.0045,32.9344H178.938V4.9515a1.41175,1.41175,0,0,0-1.4062-1.4227H160.4905a1.41538,1.41538,0,0,0-1.4077,1.4227V94.129a1.41935,1.41935,0,0,0,1.4077,1.4267h17.0413a1.4157,1.4157,0,0,0,1.4062-1.4267V55.9845h26.5643l-.0462,38.1445a1.4201,1.4201,0,0,0,1.4114,1.4267h17.0822a1.41578,1.41578,0,0,0,1.4063-1.4267Z"/>
        <g>
          <ellipse class="cls-1" cx="90.54275" cy="16.65533" rx="10.9885" ry="11.09895"/>
          <path class="cls-1" d="M100.3133,75.3174V34.1528a1.41678,1.41678,0,0,0-1.41-1.4205H81.9149a1.625,1.625,0,0,0-1.4766,1.5853V93.294c0,1.7329,1.0803,2.2485,2.4777,2.2485H98.2222c1.6795,0,2.0911-.8247,2.0911-2.2763Z"/>
        </g>
        <path class="cls-1" d="M290.12409,32.8663h-16.9117a1.41807,1.41807,0,0,0-1.4069,1.426V78.0186a19.10652,19.10652,0,0,1-10.3946,3.1436c-6.0974,0-7.716-2.7671-7.716-8.7378V34.2923a1.417,1.417,0,0,0-1.40629-1.426H235.125a1.42046,1.42046,0,0,0-1.4092,1.426V75.3116c0,17.7349,9.8841,22.0738,23.4815,22.0738,11.1548,0,20.149-6.1626,20.149-6.1626a35.80766,35.80766,0,0,0,.6218,3.6327,1.49032,1.49032,0,0,0,1.2443.772l10.919-.0483a1.42043,1.42043,0,0,0,1.4091-1.4239l-.0051-59.863A1.41947,1.41947,0,0,0,290.12409,32.8663Z"/>
        <path class="cls-1" d="M336.34579,30.8631a31.79811,31.79811,0,0,0-16.13819,4.2854V4.9515a1.41325,1.41325,0,0,0-1.40631-1.4227H301.711a1.41494,1.41494,0,0,0-1.40839,1.4227V94.129a1.41935,1.41935,0,0,0,1.41059,1.4267h11.8572a1.413,1.413,0,0,0,1.237-.7573,27.78956,27.78956,0,0,0,.72-4.1118s6.988,6.6226,20.2178,6.6226c15.531,0,24.438-7.878,24.438-35.3658C360.18319,34.4553,345.95809,30.8631,336.34579,30.8631ZM329.6756,81.108a20.27757,20.27757,0,0,1-9.84451-2.8404V50.0269a22.541,22.541,0,0,1,8.7407-2.8359c6.0901-.5453,11.9583,1.2942,11.9583,15.8218C340.53009,78.3321,337.8816,81.3555,329.6756,81.108Z"/>
        <path class="cls-1" d="M149.2932,32.7242H136.5095l-.019-16.8886c0-.6394-.3296-.9587-1.0686-.9587H118.0013c-.6775,0-1.0408.2981-1.0408.9489V33.2779s-8.7305,2.1076-9.3208,2.2778a1.4161,1.4161,0,0,0-1.0203,1.3594v10.967a1.41535,1.41535,0,0,0,1.40921,1.4249h8.93189V75.691c0,19.5967,13.74611,21.5215,23.0215,21.5215a38.89,38.89,0,0,0,10.1455-1.67,1.31843,1.31843,0,0,0,.8005-1.2788l.0139-12.0644a1.439,1.439,0,0,0-1.4128-1.4238c-.7449,0-2.6507.3032-4.6128.3032-6.2791,0-8.4068-2.9194-8.4068-6.6988,0-3.7763-.0007-25.0729-.0007-25.0729h12.7844a1.41661,1.41661,0,0,0,1.4107-1.4249V34.1451A1.41426,1.41426,0,0,0,149.2932,32.7242Z"/>
      </g>
    </g>
  </g>
</svg>
