<?xml version="1.0" encoding="UTF-8"?>
<svg width="153px" height="48px" viewBox="0 0 153 48" version="1.1" xmlns="http://www.w3.org/2000/svg" xmlns:xlink="http://www.w3.org/1999/xlink">
    <title>valtech_logo</title>
    <g id="valtech_logo" stroke="none" stroke-width="1" fill="none" fill-rule="evenodd">
        <g id="Group-2" transform="translate(0.000000, 5.000000)" fill="#FFFFFF">
            <polygon id="Fill-1" points="14.519346 29.266417 8.20448247 29.266417 0 7.87641706 6.70194291 7.87641706 11.4253344 23.6379982 11.5143981 23.6379982 16.3696143 7.87641706 22.7699999 7.87641706"></polygon>
            <path d="M36.9869598,18.5329623 C36.3918221,18.977744 35.4046844,19.3402751 32.9158193,19.7064734 C30.6866721,20.0691355 28.8376063,20.5926315 28.8376063,22.9327121 C28.8376063,24.913667 30.4712228,25.512341 31.6309818,25.512341 C34.2911586,25.512341 36.9869598,23.9007278 36.9869598,21.2768303 L36.9869598,18.5329623 Z M42.8715418,24.7904221 C42.8715418,27.3358673 43.4685132,27.8969523 44.1989452,28.14318 L44.1989452,28.9882128 L37.7173919,28.9882128 C37.3786978,27.9790718 37.2931729,27.6574041 37.1632485,26.4428987 C35.7894808,27.7771127 33.8565928,29.5528341 29.7853213,29.5528341 C26.3537181,29.5528341 22.8317441,27.7325821 22.8317441,23.2952433 C22.8317441,19.0940473 25.6678166,16.9592001 29.4842161,16.4324298 L34.8862964,15.6624441 C35.8340114,15.5394612 36.9869598,15.1767991 36.9869598,13.9689733 C36.9869598,11.5877673 34.5887275,11.4681897 33.0423385,11.4681897 C30.0434675,11.4681897 29.5287467,13.1992495 29.3559943,14.4548802 L23.5637478,14.4548802 C24.2496493,7.86894206 29.0994197,6.94532595 33.7710679,6.94532595 C36.9869598,6.94532595 42.8715418,7.86894206 42.8715418,13.1616605 L42.8715418,24.7904221 Z" id="Fill-2"></path>
            <polygon id="Fill-4" points="46.4707108 28.9882128 52.4784066 28.9882128 52.4784066 1.56887836e-13 46.4707108 1.56887836e-13"></polygon>
            <path d="M63.8899115,7.50968525 L67.6241915,7.50968525 L67.6241915,11.546773 L63.8899115,11.546773 L63.8899115,23.2166599 C63.8899115,24.4688853 63.9344421,24.951256 66.3789076,24.951256 C66.7672403,24.951256 67.1897567,24.913667 67.6241915,24.8724107 L67.6241915,29.1456414 C66.6783101,29.190172 65.7322978,29.2347025 64.7915243,29.2347025 L64.019836,29.2347025 C58.8297997,29.2347025 57.8839184,27.3734563 57.8839184,24.5851887 L57.8839184,11.546773 L54.7980818,11.546773 L54.7980818,7.50968525 L57.8839184,7.50968525 L57.8839184,1.6936018 L63.8899115,1.6936018 L63.8899115,7.50968525 Z" id="Fill-6"></path>
            <path d="M85.12635,16.1072913 C84.7842506,12.63823 82.4236073,11.5877018 80.4941245,11.5877018 C77.6611953,11.5877018 76.1593369,13.2848399 75.8172374,16.1072913 L85.12635,16.1072913 Z M91.048652,22.6896932 C89.4577324,27.8558925 84.914437,29.5527686 81.010548,29.5527686 C74.5753588,29.5527686 69.6392777,26.6447923 69.6392777,17.8075726 C69.6392777,15.2212642 70.5854211,6.94526046 80.5795184,6.94526046 C85.0820814,6.94526046 91.3052265,8.96026809 91.3052265,18.7759813 L91.3052265,19.7851222 L75.6461877,19.7851222 C75.8172374,21.3966044 76.1593369,25.0299048 81.010548,25.0299048 C82.6837181,25.0299048 84.3943463,24.2224611 84.8665012,22.6896932 L91.048652,22.6896932 Z" id="Fill-7"></path>
            <path d="M113.875264,21.157017 C113.659683,23.377389 111.812058,29.5528603 103.447124,29.5528603 C94.8632048,29.5528603 92.8960021,23.377389 92.8960021,18.8546563 C92.8960021,11.9093303 96.1087507,6.94535214 103.833754,6.94535214 C107.439681,6.94535214 113.358447,8.47798908 113.912722,15.1768253 L107.823037,15.1768253 C107.559521,13.8117018 106.711083,11.7076331 104.131454,11.7076331 L103.833754,11.7076331 C100.056777,11.7076331 99.067937,15.2657554 99.067937,17.9307782 C99.067937,20.2674536 99.1535929,24.9136932 103.70383,24.9136932 C106.752208,24.9136932 107.778507,22.1662889 107.778507,21.157017 L113.875264,21.157017 Z" id="Fill-8"></path>
            <path d="M137.208017,28.9882259 L131.203596,28.9882259 L131.203596,15.946405 C131.203596,14.3727737 131.118202,11.70762 127.296694,11.70762 C124.641756,11.70762 122.582218,13.4046271 122.582218,16.6751344 L122.582218,28.9882259 L116.574522,28.9882259 L116.574522,1.30972223e-05 L122.582218,1.30972223e-05 L122.582218,10.2946917 L122.667743,10.2946917 C123.441003,8.52237557 126.013559,6.94533905 129.270577,6.94533905 C133.732014,6.94533905 137.208017,9.40853362 137.208017,14.1333565 L137.208017,28.9882259 Z" id="Fill-9"></path>
            <polygon id="Fill-10" points="140.943987 28.9882128 152.955973 28.9882128 152.955973 24.951256 140.943987 24.951256"></polygon>
        </g>
    </g>
</svg>